<svg width="70" height="28" viewBox="0 0 70 28" fill="none" xmlns="http://www.w3.org/2000/svg">
<path d="M2.99879 6.72248V15.148H4.48229C5.78565 15.148 6.8029 14.7569 7.54465 13.9852C8.2864 13.2029 8.65728 12.1457 8.65728 10.8031C8.65728 9.53452 8.2864 8.54079 7.55525 7.81135C6.8241 7.08192 5.79624 6.72248 4.46109 6.72248H2.99879ZM0 17.5795V4.29102H4.71541C9.45201 4.29102 11.815 6.44762 11.815 10.7714C11.815 12.8434 11.1686 14.4926 9.87586 15.7295C8.5831 16.9664 6.86648 17.5795 4.71541 17.5795H0Z" fill="white"/>
<path d="M19.19 11.8719C19.19 10.5081 18.639 9.83155 17.5369 9.83155C17.0707 9.83155 16.6574 10.0218 16.3184 10.413C15.9793 10.8041 15.7673 11.2904 15.6932 11.8719H19.19ZM21.9027 13.669H15.6932C15.7885 15.0433 16.6574 15.7411 18.2999 15.7411C19.3489 15.7411 20.2708 15.4979 21.055 15.0011V17.1154C20.1755 17.5805 19.031 17.8237 17.6217 17.8237C16.0852 17.8237 14.8984 17.4008 14.0401 16.5445C13.1924 15.6988 12.7686 14.5148 12.7686 12.9925C12.7686 11.4173 13.2242 10.1698 14.1461 9.25011C15.0574 8.33038 16.1912 7.86523 17.5263 7.86523C18.9145 7.86523 19.9847 8.27753 20.7477 9.10211C21.5106 9.92669 21.8815 11.0367 21.8815 12.4533V13.669H21.9027Z" fill="white"/>
<path d="M26.205 17.5809H23.2698V3.53125H26.205V17.5809Z" fill="white"/>
<path d="M31.2382 17.5796H28.303V8.08634H31.2382V17.5796ZM29.7865 6.58517C29.2885 6.58517 28.8858 6.43717 28.5679 6.14116C28.25 5.84516 28.0911 5.48572 28.0911 5.06286C28.0911 4.62943 28.25 4.26999 28.5679 3.98456C28.8858 3.7097 29.2885 3.57227 29.7865 3.57227C30.2845 3.57227 30.6978 3.7097 31.0051 3.98456C31.323 4.25942 31.4713 4.61885 31.4713 5.06286C31.4713 5.50687 31.3124 5.87687 31.0051 6.15173C30.6978 6.44774 30.2845 6.58517 29.7865 6.58517Z" fill="white"/>
<path d="M42.3855 8.08789L38.8463 17.5812H35.4978L32.1282 8.08789H35.2647L36.9178 13.934C37.1085 14.6 37.2145 15.1603 37.2462 15.6254H37.2886C37.331 15.192 37.4476 14.6423 37.6277 13.9974L39.3231 8.09846H42.3855V8.08789Z" fill="white"/>
<path d="M48.9025 11.8719C48.9025 10.5081 48.3515 9.83155 47.2495 9.83155C46.7832 9.83155 46.37 10.0218 46.0309 10.413C45.6918 10.8041 45.4799 11.2904 45.4057 11.8719H48.9025ZM51.6258 13.669H45.4163C45.5117 15.0433 46.3806 15.7411 48.023 15.7411C49.0721 15.7411 49.994 15.4979 50.7781 15.0011V17.1154C49.8986 17.5805 48.7542 17.8237 47.3449 17.8237C45.8084 17.8237 44.6216 17.4008 43.7633 16.5445C42.9156 15.6988 42.4917 14.5148 42.4917 12.9925C42.4917 11.4173 42.9473 10.1698 43.8692 9.25011C44.7805 8.33038 45.9143 7.86523 47.2495 7.86523C48.6376 7.86523 49.7079 8.27753 50.4708 9.10211C51.2337 9.92669 51.6046 11.0367 51.6046 12.4533V13.669H51.6258Z" fill="white"/>
<path d="M59.1914 10.7312C58.8418 10.5409 58.4285 10.4457 57.9517 10.4457C57.3159 10.4457 56.8178 10.6783 56.4576 11.1435C56.0973 11.6086 55.9171 12.2429 55.9171 13.0463V17.5815H52.9819V8.08826H55.9171V9.85372H55.9595C56.4258 8.56398 57.2629 7.92969 58.4709 7.92969C58.7782 7.92969 59.0219 7.9614 59.1914 8.04597V10.7312Z" fill="white"/>
<path d="M69.9998 8.08789L66.1321 18.3423C65.1996 20.8055 63.8009 22.0424 61.9359 22.0424C61.226 22.0424 60.6432 21.9578 60.1769 21.7992V19.4629C60.569 19.6955 60.9929 19.8012 61.4485 19.8012C62.2009 19.8012 62.7307 19.4418 63.0274 18.7335L63.5254 17.56L59.6577 8.08789H62.9108L64.6804 13.86C64.797 14.2194 64.8818 14.6423 64.9453 15.1286H64.9877C65.0407 14.7691 65.1467 14.3568 65.295 13.8811L67.0858 8.08789H69.9998Z" fill="white"/>
<path d="M13.5529 26.6829C12.8006 27.1058 12.027 27.3172 11.2323 27.3172C10.2362 27.3172 9.44151 26.9789 8.82692 26.3129C8.21233 25.6363 7.90503 24.7589 7.90503 23.67C7.90503 22.5705 8.23352 21.6508 8.90109 20.9108C9.55807 20.1708 10.4482 19.8008 11.5502 19.8008C12.186 19.8008 12.8112 19.9276 13.4152 20.1814V20.7311C12.7582 20.4139 12.1118 20.2554 11.476 20.2554C10.5541 20.2554 9.82298 20.5725 9.26137 21.1962C8.69976 21.82 8.42425 22.6234 8.42425 23.5854C8.42425 24.6109 8.68916 25.4037 9.20839 25.9852C9.72761 26.5666 10.4376 26.852 11.3277 26.852C11.9847 26.852 12.5569 26.7146 13.0549 26.4292V24.0294H11.3383V23.5748H13.5635V26.6829H13.5529Z" fill="white"/>
<path d="M15.5343 20.3812V23.4892H16.7846C17.3357 23.4892 17.7807 23.3412 18.1092 23.0558C18.4377 22.7703 18.5966 22.3686 18.5966 21.8612C18.5966 21.396 18.4483 21.0366 18.1516 20.7723C17.8549 20.508 17.431 20.3812 16.8906 20.3812H15.5343ZM18.7556 27.1893L17.7807 25.0644C17.5794 24.6204 17.378 24.3349 17.1767 24.1764C16.9754 24.0284 16.7211 23.9544 16.4244 23.9544H15.5237V27.1893H15.0256V19.916H17.0495C17.6959 19.916 18.194 20.0852 18.5648 20.434C18.9357 20.7829 19.1159 21.2375 19.1159 21.8083C19.1159 22.3369 18.9675 22.7703 18.6602 23.1192C18.3635 23.4681 17.9396 23.7006 17.3992 23.7958V23.8169C17.6853 23.9332 17.9714 24.2821 18.2469 24.8635L19.3278 27.1787H18.7556V27.1893Z" fill="white"/>
<path d="M23.6513 20.2562C22.8035 20.2562 22.1042 20.5627 21.5638 21.1759C21.0127 21.789 20.7478 22.5925 20.7478 23.5756C20.7478 24.5799 21.0022 25.3728 21.5214 25.9648C22.0406 26.5568 22.7294 26.8528 23.5983 26.8528C24.499 26.8528 25.2089 26.5568 25.7387 25.9754C26.2686 25.394 26.5229 24.5694 26.5229 23.5228C26.5229 22.4973 26.2686 21.6939 25.7493 21.1125C25.2301 20.5416 24.5308 20.2562 23.6513 20.2562ZM23.5983 27.318C22.5704 27.318 21.7439 26.9797 21.1399 26.2925C20.5253 25.6054 20.218 24.728 20.218 23.6285C20.218 22.4656 20.5359 21.5459 21.1611 20.8376C21.7863 20.1399 22.6446 19.791 23.736 19.791C24.7215 19.791 25.5162 20.1293 26.1202 20.7953C26.7242 21.4613 27.0315 22.3493 27.0315 23.4382C27.0315 24.6434 26.7242 25.5843 26.099 26.282C25.4738 26.9797 24.6367 27.318 23.5983 27.318Z" fill="white"/>
<path d="M33.2728 24.2832C33.2728 26.3024 32.4145 27.3173 30.6767 27.3173C29.0343 27.3173 28.2078 26.3447 28.2078 24.3995V19.9277H28.7058V24.3361C28.7058 26.0275 29.3946 26.8627 30.7721 26.8627C32.1072 26.8627 32.7642 26.0381 32.7642 24.3995V19.9277H33.2623V24.2832H33.2728Z" fill="white"/>
<path d="M35.3496 20.3823V23.8181H36.388C37.045 23.8181 37.5431 23.6595 37.8821 23.3529C38.2212 23.0358 38.3908 22.6023 38.3908 22.0315C38.3908 20.9426 37.7656 20.3929 36.5046 20.3929H35.3496V20.3823ZM35.3496 24.2832V27.201H34.8516V19.9277H36.6106C37.3629 19.9277 37.9351 20.0969 38.3272 20.4457C38.7193 20.7946 38.9206 21.302 38.9206 21.9681C38.9206 22.6446 38.6981 23.1944 38.253 23.6384C37.808 24.0718 37.1934 24.2938 36.3986 24.2938H35.3496V24.2832Z" fill="white"/>
<path d="M44.2929 6.30067H39.302L41.9829 3.15033L39.302 0H44.2929L46.9738 3.15033L44.2929 6.30067Z" fill="#FDCE00"/>
<path d="M51.965 6.30067H46.9741L49.655 3.15033L46.9741 0H51.965L54.6459 3.15033L51.965 6.30067Z" fill="#B2B2B3"/>
<path d="M59.6473 6.30067H54.6458L57.3266 3.15033L54.6458 0H59.6473L62.3282 3.15033L59.6473 6.30067Z" fill="#3F53A1"/>
<path d="M67.3193 6.30067H62.3284L65.0093 3.15033L62.3284 0H67.3193L70.0002 3.15033L67.3193 6.30067Z" fill="#95B51F"/>
</svg>
