<svg width="193" height="34" viewBox="0 0 193 34" fill="none" xmlns="http://www.w3.org/2000/svg">
<path d="M45.4183 25.7153H49.472L58.2048 8.22197H54.1762L49.6471 17.5934H49.1967L43.892 8.22197H39.488L47.4201 21.6919L45.4183 25.7153Z" fill="black"/>
<path d="M60.0063 8.22197V25.7153H63.7597V18.4931H67.1878L71.6918 25.7153H76.0957L70.1904 16.2689L75.8455 8.22197H71.4416L66.7374 14.9444H63.7597V8.22197H60.0063Z" fill="black"/>
<path d="M82.076 17.0186V11.5207H86.4299C88.2815 11.5207 89.3325 12.5203 89.3325 14.2697C89.3325 16.019 88.2815 17.0186 86.4299 17.0186H82.076ZM78.3477 8.22197V25.7153H82.076V20.2174H86.6301C90.5085 20.2174 93.1859 17.6934 93.1859 14.2197C93.1859 10.746 90.7337 8.22197 86.6301 8.22197H78.3477Z" fill="black"/>
<path d="M95.8884 8.22197V25.7153H99.6418V11.7706H107.549V25.7153H111.302V8.22197H95.8884Z" fill="black"/>
<path d="M123.388 22.3916C120.31 22.3916 118.183 20.1924 118.183 16.9686C118.183 13.7449 120.31 11.5457 123.388 11.5457C126.466 11.5457 128.593 13.7449 128.593 16.9686C128.593 20.1924 126.466 22.3916 123.388 22.3916ZM123.388 25.9652C128.593 25.9652 132.471 22.1417 132.471 16.9686C132.471 11.7956 128.718 7.97205 123.388 7.97205C118.058 7.97205 114.305 11.7956 114.305 16.9686C114.305 22.1417 118.058 25.9652 123.388 25.9652Z" fill="black"/>
<path d="M135.474 8.22197V25.7153H157.493V8.22197H153.74V22.1167H148.36V11.2708H144.607V22.1167H139.227V8.22197H135.474Z" fill="black"/>
<path d="M175.359 8.22197H159.946V11.7706H165.776V25.7153H169.529V11.7706H175.359V8.22197Z" fill="black"/>
<path d="M180.664 18.9179L183.266 12.2454H183.617L186.219 18.9179H180.664ZM181.215 8.22197L174.033 25.7153H178.037L179.388 22.2417H187.495L188.846 25.7153H193L185.819 8.22197H181.215Z" fill="black"/>
<path d="M35.6976 0C35.6976 0 28.9123 18.9806 26.5331 24.1632C24.1538 29.3458 20.0959 34 13.203 34C5.9112 34 0 28.1285 0 20.8857C1.30613e-05 15.0102 3.89006 10.0373 9.25145 8.3691L12.6812 16.0626C10.2296 16.3213 8.31974 18.3819 8.31973 20.8857C8.31973 23.5645 10.506 25.7362 13.203 25.7362C15.9 25.7362 18.0236 23.5645 18.0236 20.8857C18.0236 19.6281 17.6185 18.5161 17.182 17.5622C16.7457 16.6087 9.39277 0.0129734 9.38702 0H35.6976Z" fill="#FFBE0C"/>
</svg>
